#N canvas 265 23 1989 920 12;
#X obj 725 284 float;
#X obj 726 306 + 1;
#X floatatom 663 360 5 0 0 0 - - -;
#X msg 511 134 tempo \$1 permin;
#X obj 515 243 metro;
#X obj 438 135 loadbang;
#X msg 438 159 1;
#X floatatom 516 39 5 0 0 0 - - -;
#X obj 510 656 readsf~;
#X obj 512 690 dac~;
#X msg 509 612 open snare.wav \, 1;
#X obj 675 649 readsf~;
#X obj 678 685 dac~;
#X msg 674 612 open bass.wav \, 1;
#X obj 832 663 readsf~;
#X obj 834 697 dac~;
#X msg 835 611 open hihat.wav \, 1;
#X obj 769 461 bng 20 250 50 0 empty empty empty 17 7 0 10 -258113
-1 -1;
#X obj 855 467 bng 20 250 50 0 empty empty empty 17 7 0 10 -258113
-1 -1;
#X obj 382 229 tgl 30 0 empty empty empty 17 7 0 10 -4034 -1 -1 0 1
;
#X obj 726 330 mod 16;
#X obj 769 515 send snare;
#X obj 506 573 receive snare;
#X obj 676 569 receive bass;
#X obj 855 515 send bass;
#X obj 836 566 receive hihat;
#X obj 999 603 adc~;
#X obj 999 627 *~ 10;
#X obj 1084 593 bng 20 250 50 0 empty empty empty 17 7 0 10 -4032 -1
-1;
#X obj 1084 624 metro 100;
#X floatatom 1208 368 5 0 0 0 - - -;
#X obj 1293 527 send bass;
#X obj 1309 494 send snare;
#N canvas 0 22 450 278 (subpatch) 0;
#X array sound 100 float 1;
#A 0 -1.16454 0.0544034 1.2298 2.26983 3.10043 3.67092 3.94941 3.93388
3.63178 3.08103 2.34552 1.49577 0.612597 -0.223158 -0.938889 -1.48291
-1.82066 -1.92959 -1.81374 -1.50667 -1.048 -0.492095 0.0873647 0.627459
1.07175 1.36845 1.48262 1.40256 1.12408 0.667362 0.0848908 -0.579925
-1.26869 -1.90334 -2.42522 -2.7842 -2.94503 -2.89661 -2.63991 -2.19965
-1.60556 -0.904052 -0.16521 0.543813 1.17585 1.6842 2.01493 2.16122
2.10064 1.83645 1.41496 0.865649 0.261056 -0.346347 -0.909315 -1.36572
-1.6795 -1.81302 -1.74708 -1.48903 -1.06632 -0.524383 0.100191 0.763409
1.38863 1.9204 2.31889 2.54439 2.56724 2.38668 2.02556 1.49644 0.830822
0.0746049 -0.707443 -1.45742 -2.13203 -2.69057 -3.10485 -3.34156 -3.39064
-3.26019 -2.97055 -2.55624 -2.04311 -1.47183 -0.888695 -0.30829 0.233492
0.69716 1.07404 1.35947 1.55509 1.66371 1.7032 1.68038 1.61458 1.51414
1.385 1.25046;
#X coords 0 1 99 -1 200 140 1 0 0;
#X restore 1210 602 graph;
#X obj 1239 322 random 4;
#X obj 1336 470 send nothing;
#X obj 1377 437 send nothing;
#X obj 1072 667 tabwrite~ sound;
#X obj 1279 383 sel 0 1 2 3;
#X obj 385 115 * 4;
#X msg 302 172 tempo \$1 permin;
#X obj 306 281 metro;
#X obj 229 173 loadbang;
#X msg 229 197 1;
#X msg 105 172 tempo \$1 permin;
#X obj 109 281 metro;
#X obj 32 173 loadbang;
#X msg 32 197 1;
#X obj 188 115 * 2;
#X obj 440 340 float;
#X obj 439 407 + 1;
#X floatatom 461 466 5 0 0 0 - - -;
#X obj 439 431 mod 16;
#X obj 395 571 send hihat;
#X obj 394 518 bng 20 250 50 0 empty empty empty 17 7 0 10 -258113
-1 -1;
#X obj 438 308 r 8th;
#X obj 1228 246 r 16th;
#X obj 726 257 r 16th;
#X obj 513 327 s master;
#X obj 304 365 s 16th;
#X obj 107 365 s 8th;
#X obj 746 359 spigot;
#X obj 833 265 tgl 25 0 empty empty empty 17 7 0 10 -4034 -1 -1 1 1
;
#X obj 1260 354 spigot;
#X obj 946 264 * -1;
#X obj 946 288 + 1;
#X obj 1217 411 bng 32 250 50 0 empty empty empty 17 7 0 10 -257985
-1 -1;
#X obj 710 409 bng 32 250 50 0 empty empty empty 17 7 0 10 -257985
-1 -1;
#X obj 831 238 bng 20 250 50 0 empty empty empty 17 7 0 10 -4032 -1
-1;
#X obj 752 389 select 0 1 2 3 4 5 6 7 8 9 10 11 12 13 14 15;
#X obj 853 193 select 0 1 2 3 4 5 6 7 8 9 10 11 12 13 14 15;
#X obj 743 99 float;
#X obj 744 121 + 1;
#X obj 744 145 mod 16;
#X obj 744 72 r 16th;
#X msg 592 104 tempo \$1 permin;
#X obj 553 77 / 2;
#X obj 584 215 metro;
#X obj 573 278 s half_note;
#X obj 1269 467 bng 20 250 50 0 empty empty empty 17 7 0 10 -258113
-1 -1;
#X obj 1299 442 bng 20 250 50 0 empty empty empty 17 7 0 10 -258113
-1 -1;
#X obj 1357 410 bng 20 250 50 0 empty empty empty 17 7 0 10 -258113
-1 -1;
#X obj 1329 425 bng 20 250 50 0 empty empty empty 17 7 0 10 -258113
-1 -1;
#X floatatom 738 190 5 0 0 0 - - -;
#X obj 516 15 receive BPM;
#X obj 375 203 receive switch;
#X obj 348 -6 loadbang;
#X msg 398 20 1;
#X obj 423 729 tgl 30 0 empty empty empty 17 7 0 10 -4034 -1 -1 1 1
;
#X obj 235 417 r half_note;
#X obj 293 585 bng 15 250 50 0 empty empty empty 17 7 0 10 -159808
-1 -1;
#X floatatom 72 647 5 0 0 0 - - -;
#X floatatom 131 651 5 0 0 0 - - -;
#N canvas 653 581 859 780 choose 0;
#X obj 160 583 *;
#X obj 211 403 select 1 2 3 4 5 6 7;
#X msg 148 494 1;
#X msg 187 494 1.125;
#X msg 237 494 1.25;
#X obj 296 549 t b f;
#X msg 281 493 1.334;
#X msg 332 493 1.5;
#X msg 369 493 1.667;
#X msg 419 493 1.876;
#X msg 472 492 2;
#N canvas 0 22 450 278 (subpatch) 0;
#X array prob 7 float 3;
#A 0 0.3 0.1 0 0.25 0.25 0 0.1;
#X coords 0 1 7 0 200 140 1 0 0;
#X restore 484 535 graph;
#X obj 136 303 + 1;
#X obj 122 101 inlet;
#X obj 174 641 outlet;
#X obj 36 105 inlet;
#X text 63 316 major;
#X floatatom 196 126 5 0 0 0 - - -;
#X floatatom 107 258 5 0 0 0 - - -;
#X obj 235 170 moses 1;
#X floatatom 236 347 5 0 0 0 - - -;
#X text 230 640 // frequency out;
#X text 23 544 // frequency in;
#X obj 509 381 outlet;
#X floatatom 320 247 5 0 0 0 - - -;
#X text 16 150 // major (0) /minor (1) in;
#X text 376 327 minor (5 + 1);
#X text 563 380 // (as if major) scale degree out;
#X obj 292 336 + 1;
#X obj 326 313 % 7;
#X obj 335 286 + 5;
#X obj 344 80 loadbang;
#X floatatom 110 607 5 0 0 0 - - -;
#X msg 60 16 0.3 0 \, 0.1 1 \, 0 2 \, 0.25 3 \, 0.25 4 \, 0 5 \, 0.1
6;
#X obj 522 131 random 2;
#X obj 522 105 metro 50;
#X obj 525 86 tgl 15 0 empty empty empty 17 7 0 10 -262144 -1 -1 0
1;
#X obj 339 177 t b;
#X obj 318 208 array random proba;
#N canvas 0 22 450 278 (subpatch) 0;
#X array proba 7 float 3;
#A 0 0.3 0.1 0 0.25 0.25 0 0.1;
#X coords 0 1 7 -1 200 140 1;
#X restore 588 204 graph;
#X obj 58 68 tabwrite proba;
#X obj 135 223 array random proba;
#X connect 0 0 14 0;
#X connect 0 0 32 0;
#X connect 1 0 2 0;
#X connect 1 1 3 0;
#X connect 1 2 4 0;
#X connect 1 3 6 0;
#X connect 1 4 7 0;
#X connect 1 5 8 0;
#X connect 1 6 9 0;
#X connect 1 7 10 0;
#X connect 2 0 5 0;
#X connect 3 0 5 0;
#X connect 4 0 5 0;
#X connect 5 0 0 0;
#X connect 5 1 0 1;
#X connect 6 0 5 0;
#X connect 7 0 5 0;
#X connect 8 0 5 0;
#X connect 9 0 5 0;
#X connect 10 0 5 0;
#X connect 12 0 20 0;
#X connect 13 0 0 0;
#X connect 15 0 17 0;
#X connect 17 0 19 0;
#X connect 18 0 12 0;
#X connect 19 0 41 0;
#X connect 19 1 37 0;
#X connect 20 0 1 0;
#X connect 20 0 23 0;
#X connect 24 0 30 0;
#X connect 28 0 20 0;
#X connect 29 0 28 0;
#X connect 30 0 29 0;
#X connect 31 0 33 0;
#X connect 33 0 40 0;
#X connect 34 0 17 0;
#X connect 35 0 34 0;
#X connect 36 0 35 0;
#X connect 37 0 38 0;
#X connect 38 0 24 0;
#X connect 41 0 18 0;
#X restore 267 616 pd choose;
#N canvas 518 96 806 716 general_chord_builder 1;
#X obj 46 36 inlet;
#X obj 294 39 inlet;
#X text 89 12 frequency;
#X text 242 12 scale degree;
#X floatatom 57 77 5 0 0 0 - - -;
#X floatatom 343 61 5 0 0 0 - - -;
#X obj 218 84 bng 15 250 50 0 empty empty empty 17 7 0 10 -159808 -1
-1;
#N canvas 35 23 773 566 chord_builder 0;
#X obj 46 36 inlet;
#X obj 294 39 inlet;
#X text 89 12 frequency;
#X text 242 12 scale degree;
#X obj 300 86 select 1 2 3 4 5 6 7;
#X floatatom 57 77 5 0 0 0 - - -;
#X obj 302 134 bng 15 250 50 0 empty empty empty 17 7 0 10 -262130
-1 -1;
#X obj 322 135 bng 15 250 50 0 empty empty empty 17 7 0 10 -204800
-1 -1;
#X obj 338 136 bng 15 250 50 0 empty empty empty 17 7 0 10 -204800
-1 -1;
#X obj 356 137 bng 15 250 50 0 empty empty empty 17 7 0 10 -262130
-1 -1;
#X obj 374 136 bng 15 250 50 0 empty empty empty 17 7 0 10 -262130
-1 -1;
#X obj 393 138 bng 15 250 50 0 empty empty empty 17 7 0 10 -204800
-1 -1;
#X obj 416 138 bng 15 250 50 0 empty empty empty 17 7 0 10 -232576
-1 -1;
#X floatatom 114 337 5 0 0 0 - - -;
#X floatatom 209 332 5 0 0 0 - - -;
#X text 441 347 left to right: m3 \, M3 \, d5 \, P5 \, m7 \, M7;
#X floatatom 359 333 5 0 0 0 - - -;
#X floatatom 364 44 5 0 0 0 - - -;
#X obj 292 256 *;
#X msg 298 228 1.5;
#X msg 196 225 1.40466;
#X obj 191 255 *;
#X msg 108 224 1.25;
#X obj 107 255 *;
#X msg 26 222 1.18519;
#X obj 22 255 *;
#X msg 366 232 1.77778;
#X obj 368 259 *;
#X msg 468 233 1.89844;
#X obj 466 259 *;
#X obj 542 286 *;
#X msg 534 209 2;
#X obj 113 432 outlet;
#X obj 184 434 outlet;
#X obj 273 436 outlet;
#X obj 47 435 outlet;
#X obj 164 60 loadbang;
#X connect 0 0 5 0;
#X connect 1 0 17 0;
#X connect 4 0 6 0;
#X connect 4 1 7 0;
#X connect 4 2 8 0;
#X connect 4 3 9 0;
#X connect 4 4 10 0;
#X connect 4 5 11 0;
#X connect 4 6 12 0;
#X connect 5 0 18 1;
#X connect 5 0 21 1;
#X connect 5 0 23 1;
#X connect 5 0 25 1;
#X connect 5 0 27 1;
#X connect 5 0 29 1;
#X connect 5 0 30 1;
#X connect 5 0 35 0;
#X connect 6 0 18 0;
#X connect 6 0 23 0;
#X connect 6 0 29 0;
#X connect 7 0 18 0;
#X connect 7 0 25 0;
#X connect 7 0 27 0;
#X connect 8 0 18 0;
#X connect 8 0 25 0;
#X connect 8 0 27 0;
#X connect 9 0 18 0;
#X connect 9 0 23 0;
#X connect 9 0 29 0;
#X connect 10 0 18 0;
#X connect 10 0 23 0;
#X connect 10 0 30 0;
#X connect 11 0 18 0;
#X connect 11 0 25 0;
#X connect 11 0 27 0;
#X connect 12 0 20 0;
#X connect 12 0 24 0;
#X connect 12 0 27 0;
#X connect 13 0 32 0;
#X connect 14 0 33 0;
#X connect 16 0 34 0;
#X connect 17 0 4 0;
#X connect 18 0 14 0;
#X connect 19 0 18 0;
#X connect 20 0 21 0;
#X connect 21 0 14 0;
#X connect 22 0 23 0;
#X connect 23 0 13 0;
#X connect 24 0 25 0;
#X connect 25 0 13 0;
#X connect 26 0 27 0;
#X connect 27 0 16 0;
#X connect 28 0 29 0;
#X connect 29 0 16 0;
#X connect 30 0 16 0;
#X connect 31 0 30 0;
#X connect 36 0 24 0;
#X connect 36 0 22 0;
#X connect 36 0 20 0;
#X connect 36 0 19 0;
#X connect 36 0 26 0;
#X connect 36 0 28 0;
#X connect 36 0 31 0;
#X restore 98 248 pd chord_builder;
#N canvas 634 23 806 562 dissonant_chord_builder 0;
#X obj 46 36 inlet;
#X obj 294 39 inlet;
#X text 89 12 frequency;
#X text 242 12 scale degree;
#X obj 300 86 select 1 2 3 4 5 6 7;
#X floatatom 57 77 5 0 0 0 - - -;
#X obj 302 134 bng 15 250 50 0 empty empty empty 17 7 0 10 -262130
-1 -1;
#X obj 321 132 bng 15 250 50 0 empty empty empty 17 7 0 10 -204800
-1 -1;
#X obj 339 135 bng 15 250 50 0 empty empty empty 17 7 0 10 -204800
-1 -1;
#X obj 358 136 bng 15 250 50 0 empty empty empty 17 7 0 10 -262130
-1 -1;
#X obj 373 137 bng 15 250 50 0 empty empty empty 17 7 0 10 -262130
-1 -1;
#X obj 391 135 bng 15 250 50 0 empty empty empty 17 7 0 10 -204800
-1 -1;
#X obj 413 139 bng 15 250 50 0 empty empty empty 17 7 0 10 -232576
-1 -1;
#X floatatom 114 337 5 0 0 0 - - -;
#X floatatom 209 332 5 0 0 0 - - -;
#X floatatom 359 333 5 0 0 0 - - -;
#X floatatom 364 44 5 0 0 0 - - -;
#X obj 292 256 *;
#X msg 196 225 1.40466;
#X obj 189 257 *;
#X msg 108 224 1.25;
#X obj 107 255 *;
#X msg 26 222 1.18519;
#X obj 22 255 *;
#X obj 368 259 *;
#X msg 468 233 1.89844;
#X obj 466 259 *;
#X obj 562 263 *;
#X msg 568 211 2;
#X obj 113 432 outlet;
#X obj 184 434 outlet;
#X obj 273 436 outlet;
#X obj 47 435 outlet;
#X obj 160 49 loadbang;
#X msg 298 228 1.5625;
#X msg 366 231 1.7066;
#X text 519 182 left to right: m3 \, M3 \, d5 \, A5 \, d7 \, M7;
#X connect 0 0 5 0;
#X connect 1 0 16 0;
#X connect 4 0 6 0;
#X connect 4 1 7 0;
#X connect 4 2 8 0;
#X connect 4 3 9 0;
#X connect 4 4 10 0;
#X connect 4 5 11 0;
#X connect 4 6 12 0;
#X connect 5 0 17 1;
#X connect 5 0 19 1;
#X connect 5 0 21 1;
#X connect 5 0 23 1;
#X connect 5 0 24 1;
#X connect 5 0 26 1;
#X connect 5 0 27 1;
#X connect 5 0 32 0;
#X connect 6 0 17 0;
#X connect 6 0 21 0;
#X connect 6 0 26 0;
#X connect 7 0 23 0;
#X connect 7 0 24 0;
#X connect 7 0 19 0;
#X connect 8 0 23 0;
#X connect 8 0 24 0;
#X connect 8 0 19 0;
#X connect 9 0 17 0;
#X connect 9 0 21 0;
#X connect 9 0 26 0;
#X connect 10 0 17 0;
#X connect 10 0 21 0;
#X connect 10 0 27 0;
#X connect 11 0 23 0;
#X connect 11 0 24 0;
#X connect 11 0 19 0;
#X connect 12 0 18 0;
#X connect 12 0 22 0;
#X connect 12 0 24 0;
#X connect 13 0 29 0;
#X connect 14 0 30 0;
#X connect 15 0 31 0;
#X connect 16 0 4 0;
#X connect 17 0 14 0;
#X connect 18 0 19 0;
#X connect 19 0 14 0;
#X connect 20 0 21 0;
#X connect 21 0 13 0;
#X connect 22 0 23 0;
#X connect 23 0 13 0;
#X connect 24 0 15 0;
#X connect 25 0 26 0;
#X connect 26 0 15 0;
#X connect 27 0 15 0;
#X connect 28 0 27 0;
#X connect 33 0 22 0;
#X connect 33 0 20 0;
#X connect 33 0 18 0;
#X connect 33 0 34 0;
#X connect 33 0 35 0;
#X connect 33 0 25 0;
#X connect 33 0 28 0;
#X connect 34 0 17 0;
#X connect 35 0 24 0;
#X restore 516 227 pd dissonant_chord_builder;
#X obj 499 49 inlet;
#X floatatom 500 75 5 0 0 0 - - -;
#X obj 491 105 select 0 1;
#X obj 129 157 bng 15 250 50 0 empty empty empty 17 7 0 10 -4032 -1
-1;
#X obj 518 135 bng 15 250 50 0 empty empty empty 17 7 0 10 -4034 -1
-1;
#X floatatom 203 382 5 0 0 0 - - -;
#X obj 203 405 outlet;
#X floatatom 304 381 5 0 0 0 - - -;
#X obj 304 404 outlet;
#X floatatom 400 377 5 0 0 0 - - -;
#X obj 400 400 outlet;
#X floatatom 513 376 5 0 0 0 - - -;
#X obj 513 399 outlet;
#X obj 95 218 spigot;
#X obj 521 195 spigot;
#X msg 130 185 1;
#X msg 517 163 1;
#X msg 304 182 0;
#X msg 300 148 0;
#X obj 171 31 loadbang;
#X text 498 22 is it dissonant 0 - no \, 1 - yes;
#X obj 292 524 list;
#X obj 279 483 pack;
#X obj 649 197 spigot;
#X obj 254 227 spigot;
#X connect 0 0 4 0;
#X connect 1 0 5 0;
#X connect 1 0 6 0;
#X connect 4 0 23 0;
#X connect 4 0 22 0;
#X connect 5 0 32 0;
#X connect 5 0 33 0;
#X connect 6 0 4 0;
#X connect 6 0 10 0;
#X connect 7 0 14 0;
#X connect 7 1 16 0;
#X connect 7 2 18 0;
#X connect 7 3 20 0;
#X connect 8 0 14 0;
#X connect 8 1 16 0;
#X connect 8 2 18 0;
#X connect 8 3 20 0;
#X connect 9 0 10 0;
#X connect 10 0 11 0;
#X connect 11 0 12 0;
#X connect 11 1 13 0;
#X connect 12 0 24 0;
#X connect 12 0 26 0;
#X connect 13 0 25 0;
#X connect 13 0 27 0;
#X connect 14 0 15 0;
#X connect 16 0 17 0;
#X connect 18 0 19 0;
#X connect 20 0 21 0;
#X connect 22 0 7 0;
#X connect 23 0 8 0;
#X connect 24 0 22 1;
#X connect 24 0 33 1;
#X connect 25 0 23 1;
#X connect 25 0 32 1;
#X connect 26 0 23 1;
#X connect 26 0 32 1;
#X connect 27 0 22 1;
#X connect 27 0 33 1;
#X connect 28 0 25 0;
#X connect 28 0 26 0;
#X connect 28 0 27 0;
#X connect 28 0 24 0;
#X connect 32 0 8 1;
#X connect 33 0 7 1;
#X restore 183 675 pd general_chord_builder;
#N canvas 99 55 450 300 chord_player 0;
#X obj 76 41 inlet;
#X obj 133 42 inlet;
#X obj 182 45 inlet;
#X obj 242 43 inlet;
#X obj 304 45 inlet;
#X text 64 9 inlet 0-3 are chord degrees \, last one is 0 or 1 to signify
whether the 7th note should be played;
#X obj 134 254 dac~;
#X obj 60 108 osc~;
#X obj 115 112 osc~;
#X obj 173 114 osc~;
#X obj 235 113 osc~;
#X obj 238 157 *~;
#X obj 129 184 +~;
#X obj 128 217 *~ 0.1;
#X connect 0 0 7 0;
#X connect 1 0 8 0;
#X connect 2 0 9 0;
#X connect 3 0 10 0;
#X connect 4 0 11 1;
#X connect 7 0 12 1;
#X connect 8 0 12 0;
#X connect 9 0 12 1;
#X connect 10 0 11 0;
#X connect 11 0 12 1;
#X connect 12 0 13 0;
#X connect 13 0 6 0;
#X connect 13 0 6 1;
#X restore 223 737 pd chord_player;
#X obj 223 450 float;
#X obj 224 475 + 1;
#X obj 223 504 mod 8;
#X obj 221 544 select 0 1 2 3 4 5 6 7;
#X floatatom 30 585 5 0 0 0 - - -;
#X obj 177 576 t b b;
#X obj 169 606 f 440;
#N canvas 200 100 618 586 modulate 1;
#X floatatom 221 320 5 0 0 0 - - -;
#X obj 64 38 inlet;
#X floatatom 69 73 5 0 0 0 - - -;
#X obj 147 87 select 1 2 3 4 5;
#X msg 33 168 0.9 0 \, 0.1 1;
#X msg 130 147 0.7 0 \, 0.3 1;
#X msg 148 180 0.5 0 \, 0.5 1;
#X msg 239 153 0.3 0 \, 0.7 1;
#X msg 277 180 0.1 0 \, 0.9 1;
#X obj 154 236 tabwrite mood;
#N canvas 0 22 450 278 (subpatch) 0;
#X array mood 2 float 3;
#A 0 0.5 0.5;
#X coords 0 1 2 0 200 140 1 0 0;
#X restore 430 60 graph;
#X obj 27 286 array random mood;
#X obj 218 295 inlet;
#X text 279 297 // in: initial frequency;
#X text 127 40 // in: user's energy level (1-5);
#X floatatom 60 316 5 0 0 0 - - -;
#X floatatom 174 411 5 0 0 0 - - -;
#X obj 185 456 outlet;
#X text 241 457 // out: frequency;
#X obj 15 399 outlet;
#X text 16 427 // out: major/minor;
#X floatatom 278 402 5 0 0 0 - - -;
#X text 329 403 // scale degree \, not needed;
#X obj 33 252 bng 20 250 50 0 empty empty empty 17 7 0 10 -159808 -1
-1;
#N canvas 321 55 1119 782 choose_mod 0;
#X obj 463 698 *;
#X obj 379 395 select 1 2 3 4 5 6 7;
#X msg 140 615 1;
#X msg 436 617 1.334;
#X msg 547 616 1.5;
#N canvas 0 22 450 278 (subpatch) 0;
#X array pb 7 float 3;
#A 0 0.5 0 0 0.25 0.25 0 0;
#X coords 0 1 7 0 200 140 1 0 0;
#X restore 809 178 graph;
#X obj 219 301 + 1;
#X msg 99 611 0.5;
#X obj 846 478 inlet;
#X obj 383 736 outlet;
#X obj 17 106 inlet;
#X text 139 303 major;
#X floatatom 183 118 5 0 0 0 - - -;
#X floatatom 151 269 5 0 0 0 - - -;
#X obj 216 153 moses 1;
#X floatatom 222 326 5 0 0 0 - - -;
#X text 446 734 // frequency out;
#X text 882 498 // frequency in;
#X obj 695 246 outlet;
#X floatatom 317 267 5 0 0 0 - - -;
#X text 15 150 // major (0) /minor (1) in;
#X text 352 313 minor (5 + 1);
#X text 555 292 // (as if major) scale degree out;
#X floatatom 510 700 5 0 0 0 - - -;
#X floatatom 865 532 5 0 0 0 - - -;
#X msg 389 619 0.667;
#X msg 493 615 0.75;
#X obj 312 317 % 7;
#X obj 313 291 + 5;
#X text 889 591 actual key;
#X obj 884 75 tabwrite updown;
#N canvas 0 22 450 278 (subpatch) 0;
#X array updown 2 float 3;
#A 0 0.3 0.7;
#X coords 0 1 2 0 200 140 1 0 0;
#X restore 824 635 graph;
#X obj 126 585 select 0 1;
#X obj 377 585 select 0 1;
#X obj 470 585 select 0 1;
#X msg 887 29 0.3 0 \, 0.7 1;
#X obj 865 571 s freq1;
#X obj 48 395 r freq1;
#X obj 166 432 bng 15 250 50 0 empty empty empty 17 7 0 10 -257985
-1 -1;
#X obj 159 480 bng 15 250 50 0 empty empty empty 17 7 0 10 -257985
-1 -1;
#X msg 204 433 0;
#X msg 188 460 1;
#X obj 23 519 array random updown;
#X obj 25 549 s bigsmall;
#X obj 604 387 r bigsmall;
#X floatatom 143 548 5 0 0 0 - - -;
#X obj 25 495 bng 15 250 50 0 empty empty empty 17 7 0 10 -257985 -1
-1;
#X obj 332 436 bng 15 250 50 0 empty empty empty 17 7 0 10 -4032 -1
-1;
#X obj 399 439 bng 15 250 50 0 empty empty empty 17 7 0 10 -4032 -1
-1;
#X obj 460 439 bng 15 250 50 0 empty empty empty 17 7 0 10 -4032 -1
-1;
#X floatatom 366 706 5 0 0 0 - - -;
#X floatatom 408 550 5 0 0 0 - - -;
#X floatatom 479 548 5 0 0 0 - - -;
#X floatatom 615 414 5 0 0 0 - - -;
#X obj 414 675 t b f;
#X obj 718 10 loadbang;
#X obj 119 344 loadbang;
#X obj 210 489 pack 1 f;
#X obj 48 449 moses 200;
#X obj 197 700 loadbang;
#X obj 335 4 inlet;
#X msg 580 124 0 0 \, 0.3 1 \, 0.1 2 \, 0 3 \, 0 4 \, 0.2 5 \, 0.5
6;
#X floatatom 335 28 5 0 0 0 - - -;
#X text 395 17 // not weird (0) vs weird (1);
#X obj 580 98 tabwrite pb;
#X msg 580 71 0.5 0 \, 0 1 \, 0 2 \, 0.25 3 \, 0.25 4 \, 0 5 \, 0 6
;
#X obj 579 152 tabwrite pbStrange;
#N canvas 0 22 450 278 (subpatch) 0;
#X array pbStrange 7 float 3;
#A 0 0 0.3 0.1 0 0 0.2 0.5;
#X coords 0 1 7 0 200 140 1 0 0;
#X restore 1025 133 graph;
#X obj 334 54 select 0 1;
#X obj 333 84 bng 15 250 50 0 empty empty empty 17 7 0 10 -4032 -1
-1;
#X obj 362 88 bng 15 250 50 0 empty empty empty 17 7 0 10 -4034 -1
-1;
#X obj 294 134 array random pb;
#X obj 362 108 array random pbStrange;
#X floatatom 373 165 5 0 0 0 - - -;
#X obj 191 185 bng 15 250 50 0 empty empty empty 17 7 0 10 -260097
-1 -1;
#X obj 276 185 bng 15 250 50 0 empty empty empty 17 7 0 10 -260097
-1 -1;
#X obj 704 434 bng 15 250 50 0 empty empty empty 17 7 0 10 -4034 -1
-1;
#X obj 742 436 bng 15 250 50 0 empty empty empty 17 7 0 10 -4034 -1
-1;
#X obj 793 437 bng 15 250 50 0 empty empty empty 17 7 0 10 -4034 -1
-1;
#X obj 828 441 bng 15 250 50 0 empty empty empty 17 7 0 10 -4034 -1
-1;
#X obj 142 218 pack 8 f;
#X obj 202 249 route 8 9;
#X obj 268 219 pack 9 f;
#X obj 424 487 pack 4 f;
#X obj 502 485 pack 5 f;
#X obj 285 487 pack 2 f;
#X obj 355 486 pack 3 f;
#X obj 573 483 pack 6 f;
#X obj 642 483 pack 7 f;
#X obj 417 517 route 1 2 3 4 5 6 7;
#X text 249 394 blue 1 4 5 2 3 6;
#X obj 216 585 select 0 1;
#X floatatom 234 548 5 0 0 0 - - -;
#X obj 293 585 select 0 1;
#X floatatom 310 548 5 0 0 0 - - -;
#X msg 243 614 1.125;
#X msg 353 617 1.25;
#X msg 179 614 0.5625;
#X msg 306 614 0.625;
#X obj 558 585 select 0 1;
#X floatatom 567 548 5 0 0 0 - - -;
#X obj 650 585 select 0 1;
#X floatatom 659 548 5 0 0 0 - - -;
#X msg 635 616 1.667;
#X msg 727 616 1.876;
#X msg 682 617 0.938;
#X msg 587 620 0.834;
#X obj 704 380 select 1 2 3 4 5 6 7;
#X obj 217 372 f;
#X obj 266 364 f;
#X obj 250 47 bng 15 250 50 0 empty empty empty 17 7 0 10 -262144 -1
-1;
#X obj 870 352 bng 15 250 50 0 empty empty empty 17 7 0 10 -204786
-1 -1;
#X floatatom 939 341 5 0 0 0 - - -;
#X obj 1010 375 select 0 1;
#X obj 32 197 s is_major;
#X obj 993 329 r is_major;
#X obj 917 395 pack 10 f;
#X obj 1044 411 pack 11 f;
#X obj 955 431 route 10 11;
#X obj 956 364 f;
#X obj 48 423 moses 1000;
#X connect 0 0 23 0;
#X connect 1 0 47 0;
#X connect 1 1 48 0;
#X connect 1 2 49 0;
#X connect 1 3 48 0;
#X connect 1 4 49 0;
#X connect 1 5 47 0;
#X connect 2 0 54 0;
#X connect 3 0 54 0;
#X connect 4 0 54 0;
#X connect 6 0 15 0;
#X connect 7 0 54 0;
#X connect 8 0 24 0;
#X connect 10 0 12 0;
#X connect 10 0 110 0;
#X connect 12 0 14 0;
#X connect 12 0 114 0;
#X connect 13 0 6 0;
#X connect 14 0 74 0;
#X connect 14 1 75 0;
#X connect 15 0 18 0;
#X connect 15 0 108 1;
#X connect 15 0 109 1;
#X connect 19 0 28 0;
#X connect 23 0 9 0;
#X connect 24 0 36 0;
#X connect 24 0 0 0;
#X connect 25 0 54 0;
#X connect 26 0 54 0;
#X connect 27 0 6 0;
#X connect 28 0 27 0;
#X connect 32 0 7 0;
#X connect 32 1 2 0;
#X connect 32 2 2 0;
#X connect 33 0 25 0;
#X connect 33 1 3 0;
#X connect 33 2 3 0;
#X connect 34 0 26 0;
#X connect 34 1 4 0;
#X connect 34 2 4 0;
#X connect 35 0 30 0;
#X connect 37 0 120 0;
#X connect 38 0 40 0;
#X connect 39 0 41 0;
#X connect 40 0 57 1;
#X connect 40 0 83 1;
#X connect 40 0 84 1;
#X connect 40 0 85 1;
#X connect 40 0 86 1;
#X connect 40 0 87 1;
#X connect 40 0 88 1;
#X connect 41 0 57 1;
#X connect 41 0 83 1;
#X connect 41 0 84 1;
#X connect 41 0 85 1;
#X connect 41 0 86 1;
#X connect 41 0 87 1;
#X connect 41 0 88 1;
#X connect 42 0 43 0;
#X connect 44 0 53 0;
#X connect 45 0 32 0;
#X connect 46 0 42 0;
#X connect 47 0 57 0;
#X connect 48 0 83 0;
#X connect 49 0 84 0;
#X connect 51 0 33 0;
#X connect 52 0 34 0;
#X connect 53 0 57 1;
#X connect 53 0 83 1;
#X connect 53 0 84 1;
#X connect 53 0 87 1;
#X connect 53 0 88 1;
#X connect 53 0 86 1;
#X connect 53 0 85 1;
#X connect 54 0 0 0;
#X connect 54 1 0 1;
#X connect 54 1 50 0;
#X connect 55 0 35 0;
#X connect 55 0 65 0;
#X connect 55 0 61 0;
#X connect 56 0 40 0;
#X connect 56 0 41 0;
#X connect 57 0 89 0;
#X connect 58 0 39 0;
#X connect 58 1 46 0;
#X connect 59 0 7 0;
#X connect 59 0 2 0;
#X connect 59 0 25 0;
#X connect 59 0 3 0;
#X connect 59 0 26 0;
#X connect 59 0 4 0;
#X connect 60 0 62 0;
#X connect 61 0 66 0;
#X connect 62 0 68 0;
#X connect 65 0 64 0;
#X connect 68 0 69 0;
#X connect 68 1 70 0;
#X connect 69 0 71 0;
#X connect 69 0 108 0;
#X connect 70 0 72 0;
#X connect 70 0 109 0;
#X connect 71 0 73 0;
#X connect 72 0 73 0;
#X connect 73 0 80 1;
#X connect 73 0 82 1;
#X connect 74 0 80 0;
#X connect 75 0 82 0;
#X connect 76 0 85 0;
#X connect 77 0 86 0;
#X connect 78 0 87 0;
#X connect 79 0 88 0;
#X connect 80 0 81 0;
#X connect 81 0 13 0;
#X connect 81 1 19 0;
#X connect 82 0 81 0;
#X connect 83 0 89 0;
#X connect 84 0 89 0;
#X connect 85 0 89 0;
#X connect 86 0 89 0;
#X connect 87 0 89 0;
#X connect 88 0 89 0;
#X connect 89 0 45 0;
#X connect 89 1 92 0;
#X connect 89 2 94 0;
#X connect 89 3 51 0;
#X connect 89 4 52 0;
#X connect 89 5 100 0;
#X connect 89 6 102 0;
#X connect 91 0 97 0;
#X connect 91 1 95 0;
#X connect 91 2 95 0;
#X connect 92 0 91 0;
#X connect 93 0 98 0;
#X connect 93 1 96 0;
#X connect 93 2 96 0;
#X connect 94 0 93 0;
#X connect 95 0 54 0;
#X connect 96 0 54 0;
#X connect 97 0 54 0;
#X connect 98 0 54 0;
#X connect 99 0 106 0;
#X connect 99 1 103 0;
#X connect 99 2 103 0;
#X connect 100 0 99 0;
#X connect 101 0 105 0;
#X connect 101 1 104 0;
#X connect 101 2 104 0;
#X connect 102 0 101 0;
#X connect 103 0 54 0;
#X connect 104 0 54 0;
#X connect 105 0 54 0;
#X connect 106 0 54 0;
#X connect 107 0 77 0;
#X connect 107 1 76 0;
#X connect 107 2 77 0;
#X connect 107 3 78 0;
#X connect 107 4 79 0;
#X connect 107 5 78 0;
#X connect 107 6 111 0;
#X connect 108 0 1 0;
#X connect 109 0 107 0;
#X connect 110 0 62 0;
#X connect 110 0 24 0;
#X connect 111 0 119 0;
#X connect 112 0 119 1;
#X connect 113 0 116 0;
#X connect 113 1 117 0;
#X connect 115 0 112 0;
#X connect 116 0 118 0;
#X connect 117 0 118 0;
#X connect 118 0 79 0;
#X connect 118 1 76 0;
#X connect 119 0 113 0;
#X connect 120 0 58 0;
#X connect 120 1 38 0;
#X restore 124 354 pd choose_mod;
#X obj 27 99 loadbang;
#X obj 154 265 inlet;
#X floatatom 162 308 5 0 0 0 - - -;
#X text 202 266 // in: not weird (0) vs weird (1);
#X connect 0 0 24 2;
#X connect 1 0 2 0;
#X connect 1 0 23 0;
#X connect 2 0 3 0;
#X connect 3 0 4 0;
#X connect 3 1 5 0;
#X connect 3 2 6 0;
#X connect 3 3 7 0;
#X connect 3 4 8 0;
#X connect 3 5 6 0;
#X connect 4 0 9 0;
#X connect 5 0 9 0;
#X connect 6 0 9 0;
#X connect 7 0 9 0;
#X connect 8 0 9 0;
#X connect 11 0 15 0;
#X connect 12 0 0 0;
#X connect 15 0 19 0;
#X connect 15 0 24 0;
#X connect 16 0 17 0;
#X connect 23 0 11 0;
#X connect 24 0 16 0;
#X connect 24 1 21 0;
#X connect 25 0 4 0;
#X connect 25 0 5 0;
#X connect 25 0 6 0;
#X connect 25 0 7 0;
#X connect 25 0 8 0;
#X connect 26 0 27 0;
#X connect 27 0 24 1;
#X restore 73 608 pd modulate;
#X msg 128 501 440;
#X msg 11 454 3;
#X floatatom 91 562 5 0 0 0 - - -;
#X text 0 567 mood;
#X text 33 665 major/minor;
#X text 64 545 dissonance;
#X obj 12 517 receive mood;
#X obj 25 396 receive dissonance;
#X floatatom 1449 206 5 0 0 0 - - -;
#X msg 1360 88 listen 0;
#X obj 1360 328 tgl 15 0 empty empty empty 17 7 0 10 -262144 -1 -1
0 1;
#X obj 1797 351 print;
#X msg 1455 86 send volume \$1;
#X floatatom 1472 32 5 0 0 0 - - -;
#X obj 1613 232 netsend;
#X msg 1643 94 disconnect;
#X obj 1774 93 tgl 15 0 empty empty empty 17 7 0 10 -262144 -1 -1 0
1;
#X floatatom 1615 265 5 0 0 0 - - -;
#X obj 1321 228 print msg;
#X floatatom 1448 331 5 0 0 0 - - -;
#X floatatom 1782 151 5 0 0 0 - - -;
#X msg 1319 37 listen 7000;
#X msg 1578 18 connect localhost 7000;
#X obj 1328 154 netreceive 7000;
#X msg 1782 183 send tempo \$1;
#X obj 1448 356 send BPM;
#X msg 1774 111 send start \$1;
#X obj 1359 354 send switch;
#X floatatom 1527 334 5 0 0 0 - - -;
#X obj 1527 357 send mood;
#X floatatom 1602 333 5 0 0 0 - - -;
#X obj 1602 356 send dissonance;
#X floatatom 1759 214 5 0 0 0 - - -;
#X floatatom 1757 280 5 0 0 0 - - -;
#X msg 1758 237 send emotion \$1;
#X obj 1747 34 tgl 15 0 empty empty empty 17 7 0 10 -262144 -1 -1 0
1;
#X obj 1721 336 tgl 15 0 empty empty empty 17 7 0 10 -262144 -1 -1
0 1;
#X obj 1721 356 send tdsp;
#X msg 1747 54 send dspToggle \$1;
#X obj 1631 594 tgl 15 0 empty empty empty 17 7 0 10 -262144 -1 -1
0 1;
#X msg 1631 615 \; pd dsp \$1;
#X obj 1633 506 r tdsp;
#X msg 1757 303 send dis \$1;
#X obj 1308 262 route start tempo emotion dis dspToggle;
#X connect 0 0 1 0;
#X connect 1 0 0 1;
#X connect 1 0 20 0;
#X connect 3 0 4 0;
#X connect 4 0 58 0;
#X connect 5 0 6 0;
#X connect 6 0 4 0;
#X connect 7 0 3 0;
#X connect 7 0 39 0;
#X connect 7 0 48 0;
#X connect 7 0 76 0;
#X connect 8 0 9 0;
#X connect 8 0 9 1;
#X connect 10 0 8 0;
#X connect 11 0 12 0;
#X connect 11 0 12 1;
#X connect 13 0 11 0;
#X connect 14 0 15 0;
#X connect 14 0 15 1;
#X connect 16 0 14 0;
#X connect 17 0 21 0;
#X connect 18 0 24 0;
#X connect 18 0 88 0;
#X connect 19 0 4 0;
#X connect 19 0 41 0;
#X connect 19 0 45 0;
#X connect 19 0 77 0;
#X connect 20 0 2 0;
#X connect 20 0 61 0;
#X connect 22 0 10 0;
#X connect 23 0 13 0;
#X connect 25 0 16 0;
#X connect 26 0 27 0;
#X connect 27 0 37 0;
#X connect 28 0 29 0;
#X connect 29 0 37 0;
#X connect 34 0 30 0;
#X connect 34 0 63 0;
#X connect 38 0 79 0;
#X connect 38 1 80 0;
#X connect 38 2 82 0;
#X connect 38 3 81 0;
#X connect 39 0 40 0;
#X connect 40 0 41 0;
#X connect 41 0 59 0;
#X connect 42 0 43 0;
#X connect 43 0 41 0;
#X connect 44 0 45 0;
#X connect 45 0 60 0;
#X connect 46 0 47 0;
#X connect 47 0 45 0;
#X connect 48 0 44 0;
#X connect 49 0 50 0;
#X connect 50 0 49 1;
#X connect 50 0 52 0;
#X connect 52 0 51 0;
#X connect 52 0 54 0;
#X connect 54 0 53 0;
#X connect 55 0 49 0;
#X connect 56 0 34 0;
#X connect 57 0 0 0;
#X connect 61 0 67 0;
#X connect 61 0 69 0;
#X connect 62 0 61 1;
#X connect 62 0 64 0;
#X connect 63 0 38 0;
#X connect 63 0 66 0;
#X connect 64 0 65 0;
#X connect 65 0 63 1;
#X connect 68 0 62 0;
#X connect 69 0 18 0;
#X connect 69 2 18 0;
#X connect 69 4 17 0;
#X connect 69 6 18 0;
#X connect 69 7 17 0;
#X connect 69 8 18 0;
#X connect 69 9 17 0;
#X connect 69 10 18 0;
#X connect 69 12 17 0;
#X connect 69 14 18 0;
#X connect 70 0 68 0;
#X connect 71 0 72 0;
#X connect 72 0 71 1;
#X connect 72 0 73 0;
#X connect 73 0 70 0;
#X connect 73 0 83 0;
#X connect 74 0 71 0;
#X connect 75 0 77 0;
#X connect 76 0 75 0;
#X connect 77 0 78 0;
#X connect 79 0 31 0;
#X connect 80 0 32 0;
#X connect 81 0 36 0;
#X connect 82 0 35 0;
#X connect 82 0 88 0;
#X connect 84 0 7 0;
#X connect 85 0 19 0;
#X connect 86 0 87 0;
#X connect 86 0 104 0;
#X connect 86 0 105 0;
#X connect 87 0 7 0;
#X connect 88 0 95 4;
#X connect 89 0 96 0;
#X connect 90 0 93 0;
#X connect 91 0 93 0;
#X connect 92 0 102 1;
#X connect 92 0 93 1;
#X connect 93 0 94 0;
#X connect 93 1 94 1;
#X connect 94 0 95 0;
#X connect 94 1 95 1;
#X connect 94 2 95 2;
#X connect 94 3 95 3;
#X connect 96 0 97 0;
#X connect 97 0 98 0;
#X connect 97 0 96 1;
#X connect 98 0 99 0;
#X connect 99 0 90 0;
#X connect 99 0 101 0;
#X connect 99 1 90 0;
#X connect 99 2 90 0;
#X connect 99 3 90 0;
#X connect 99 4 90 0;
#X connect 99 5 90 0;
#X connect 99 6 90 0;
#X connect 99 7 90 0;
#X connect 100 0 103 0;
#X connect 101 0 100 0;
#X connect 101 1 102 0;
#X connect 102 0 103 2;
#X connect 103 0 91 0;
#X connect 103 1 92 0;
#X connect 104 0 103 2;
#X connect 105 0 100 0;
#X connect 106 0 103 1;
#X connect 106 0 94 2;
#X connect 110 0 100 0;
#X connect 111 0 106 0;
#X connect 113 0 127 0;
#X connect 114 0 131 0;
#X connect 116 0 127 0;
#X connect 117 0 116 0;
#X connect 118 0 121 0;
#X connect 119 0 118 0;
#X connect 120 0 130 0;
#X connect 123 0 129 0;
#X connect 124 0 128 0;
#X connect 125 0 127 0;
#X connect 126 0 118 0;
#X connect 127 0 122 0;
#X connect 127 0 147 0;
#X connect 127 1 112 0;
#X connect 128 0 118 0;
#X connect 130 0 118 0;
#X connect 132 0 133 0;
#X connect 134 0 135 0;
#X connect 136 0 138 0;
#X connect 137 0 146 0;
#X connect 138 0 118 0;
#X connect 139 0 142 0;
#X connect 140 0 141 0;
#X connect 142 0 118 0;
#X connect 143 0 144 0;
#X connect 145 0 143 0;
#X connect 146 0 118 0;
#X connect 147 0 114 0;
#X connect 147 1 123 0;
#X connect 147 2 132 0;
#X connect 147 3 134 0;
#X connect 147 4 140 0;
#X connect 147 5 115 0;
